<svg width="288" height="294" viewBox="0 0 288 294" fill="none" xmlns="http://www.w3.org/2000/svg">
<g clip-path="url(#clip0_357_125)">
<path d="M264 128.441V232.75C263.981 248.989 257.653 264.556 246.405 276.039C235.157 287.521 219.907 293.981 204 294H84C68.0929 293.981 52.8427 287.521 41.5946 276.039C30.3466 264.556 24.0191 248.989 24 232.75V61.25C24.0191 45.0115 30.3466 29.4436 41.5946 17.9612C52.8427 6.47884 68.0929 0.0194895 84 3.82056e-05H138.18C149.215 -0.0289566 160.147 2.17549 170.343 6.48591C180.538 10.7963 189.796 17.1272 197.58 25.1125L239.388 67.816C247.215 75.757 253.42 85.2044 257.645 95.611C261.87 106.018 264.03 117.176 264 128.441ZM180.612 42.434C176.835 38.6998 172.595 35.4874 168 32.879V85.75C168 88.9989 169.264 92.1148 171.515 94.4121C173.765 96.7094 176.817 98 180 98H231.792C229.235 93.3106 226.084 88.9858 222.42 85.1375L180.612 42.434ZM240 128.441C240 126.42 239.616 124.485 239.436 122.5H180C170.452 122.5 161.295 118.628 154.544 111.736C147.793 104.844 144 95.4967 144 85.75V25.0758C142.056 24.892 140.148 24.5 138.18 24.5H84C74.4522 24.5 65.2955 28.3719 58.5442 35.2639C51.7928 42.1558 48 51.5033 48 61.25V232.75C48 242.497 51.7928 251.844 58.5442 258.736C65.2955 265.628 74.4522 269.5 84 269.5H204C213.548 269.5 222.705 265.628 229.456 258.736C236.207 251.844 240 242.497 240 232.75V128.441Z" fill="black"/>
<g clip-path="url(#clip1_357_125)">
<path d="M179.016 173.964C179.016 176.083 177.265 177.816 175.125 177.816H163.375C162.364 192.839 149.68 204.781 134.273 204.781H123.769L158.123 232.631C159.796 233.979 160.029 236.406 158.668 238.062C157.89 238.987 156.761 239.488 155.633 239.488C154.777 239.488 153.882 239.218 153.182 238.602L110.424 203.895C109.14 202.855 108.673 201.16 109.218 199.619C109.762 198.078 111.241 197.077 112.875 197.077H134.273C145.401 197.077 154.582 188.602 155.594 177.816H112.875C110.735 177.816 108.984 176.083 108.984 173.964C108.984 171.846 110.735 170.112 112.875 170.112H154.855C152.326 161.214 144.039 154.704 134.273 154.704H112.875C110.735 154.704 108.984 152.971 108.984 150.852C108.984 148.733 110.735 147 112.875 147H175.125C177.265 147 179.016 148.733 179.016 150.852C179.016 152.971 177.265 154.704 175.125 154.704H154.077C158.473 158.749 161.625 164.103 162.831 170.112H175.086C177.226 170.112 178.977 171.846 178.977 173.964H179.016Z" fill="black"/>
</g>
</g>
<defs>
<clipPath id="clip0_357_125">
<rect width="288" height="294" fill="white"/>
</clipPath>
<clipPath id="clip1_357_125">
<rect width="93.375" height="92.4492" fill="white" transform="translate(97.3125 147)"/>
</clipPath>
</defs>
</svg>
