<svg width="96" height="96" viewBox="0 0 96 96" fill="none" xmlns="http://www.w3.org/2000/svg">
<path d="M91.6146 75.552L73.2696 57.207C78.2676 51.282 81.0006 43.863 81.0006 36C81.0006 35.142 80.9676 34.248 80.9016 33.423C80.7696 31.77 79.2786 30.498 77.6736 30.672C76.0206 30.804 74.7906 32.25 74.9226 33.9C74.9736 34.572 75.0006 35.301 75.0006 36C75.0006 43.263 72.1626 50.07 67.0146 55.164C63.0876 59.034 58.1736 61.596 52.7706 62.574C49.9086 63.129 46.4046 63.165 43.0476 62.538C37.6986 61.563 32.8086 58.986 28.9116 55.089C23.8116 49.986 21.0006 43.206 21.0006 36C21.0006 21.114 33.1146 9 48.0006 9C55.2636 9 62.0826 11.847 67.1976 17.019C68.3616 18.195 70.2636 18.207 71.4396 17.043C72.6186 15.879 72.6276 13.98 71.4636 12.801C65.2116 6.48 56.8776 3 48.0006 3C29.8056 3 15.0006 17.805 15.0006 36C15.0006 43.803 17.7036 51.189 22.6506 57.108L3.87957 75.879C3.02157 76.737 2.76357 78.027 3.22857 79.149C3.69357 80.268 4.78857 81 6.00057 81H15.0006V90C15.0006 91.212 15.7326 92.307 16.8516 92.772C17.2236 92.925 17.6136 93 18.0006 93C18.7806 93 19.5486 92.694 20.1216 92.121L43.5786 68.664C45.0516 68.865 46.5276 69 48.0006 69C49.4976 69 50.9136 68.874 52.2726 68.694L75.6996 92.121C76.2726 92.694 77.0406 93 77.8206 93C78.2076 93 78.5976 92.925 78.9696 92.772C80.0916 92.307 80.8206 91.212 80.8206 90V81H89.8206C89.8296 81 89.8416 81 89.8506 81C91.6356 80.916 92.8806 79.668 92.8806 78C92.8806 76.989 92.3796 76.095 91.6146 75.552ZM21.0006 82.758V78C21.0006 76.344 19.6566 75 18.0006 75H13.2426L26.8836 61.359C27.0696 61.512 27.2676 61.647 27.4536 61.797C27.9156 62.169 28.3836 62.532 28.8636 62.874C29.1396 63.072 29.4216 63.258 29.7036 63.447C30.1746 63.762 30.6486 64.068 31.1346 64.356C31.4286 64.533 31.7256 64.704 32.0256 64.869C32.5236 65.145 33.0276 65.406 33.5376 65.655C33.8346 65.799 34.1286 65.946 34.4286 66.081C34.9866 66.333 35.5536 66.561 36.1236 66.78C36.3276 66.858 36.5226 66.954 36.7296 67.029L21.0006 82.758ZM77.8206 75C76.1646 75 74.8206 76.344 74.8206 78V82.758L59.1306 67.065C59.3586 66.984 59.5776 66.876 59.8056 66.789C60.3426 66.582 60.8766 66.372 61.4046 66.138C61.7316 65.991 62.0526 65.832 62.3766 65.679C62.8626 65.442 63.3426 65.199 63.8136 64.938C64.1346 64.761 64.4526 64.581 64.7676 64.395C65.2356 64.119 65.6916 63.831 66.1446 63.531C66.4446 63.333 66.7416 63.138 67.0326 62.931C67.5066 62.595 67.9686 62.241 68.4246 61.878C68.6166 61.725 68.8206 61.59 69.0096 61.434L82.5786 75H77.8206Z" fill="#306EBA"/>
<path d="M34.1277 30.897C32.9217 29.766 31.0197 29.829 29.8887 31.038C28.7577 32.247 28.8207 34.146 30.0297 35.277L45.9687 50.19C46.5417 50.73 47.2797 51 48.0147 51C48.7497 51 49.4877 50.73 50.0637 50.19L82.1277 20.19C83.3367 19.059 83.3997 17.16 82.2687 15.951C81.1347 14.739 79.2357 14.679 78.0297 15.81L48.0177 43.89L34.1277 30.897Z" fill="#306EBA"/>
</svg>
