<svg width="128" height="121" viewBox="0 0 128 121" fill="none" xmlns="http://www.w3.org/2000/svg">
<path d="M78.8465 88.572L93.6945 108.174C93.9505 108.658 94.9745 108.658 94.9745 107.932L101.375 88.814C101.631 88.33 101.119 87.846 100.607 87.846L79.3585 87.362C78.8465 87.362 78.5905 88.088 78.8465 88.572Z" fill="black" stroke="black" stroke-width="3" stroke-miterlimit="10" stroke-linecap="round"/>
<path d="M47.8715 30.492L33.0235 10.89C32.7675 10.406 31.7435 10.406 31.7435 11.132L25.3435 30.25C25.0875 30.734 25.5995 31.218 26.1115 31.218L47.3595 31.702C47.8715 31.702 48.3835 30.976 47.8715 30.492Z" fill="black" stroke="black" stroke-width="3" stroke-miterlimit="10" stroke-linecap="round"/>
<path d="M100.863 88.33C91.9034 98.736 78.5914 105.27 63.4874 105.27C36.8634 105.27 15.3594 84.942 15.3594 59.774C15.3594 56.144 15.8714 52.756 16.6394 49.368" stroke="black" stroke-width="3" stroke-miterlimit="10" stroke-linecap="round"/>
<path d="M25.8555 30.492C34.8155 20.086 48.1275 13.552 63.2315 13.552C89.8555 13.552 111.359 33.88 111.359 59.048C111.359 62.678 110.847 66.066 110.079 69.454" stroke="black" stroke-width="3" stroke-miterlimit="10" stroke-linecap="round"/>
</svg>
