<svg width="96" height="96" viewBox="0 0 96 96" fill="none" xmlns="http://www.w3.org/2000/svg">
<path d="M78.0005 39C77.5417 38.3904 77.0405 37.814 76.5005 37.275L54.2255 15C53.6418 14.4154 52.9485 13.9516 52.1853 13.6352C51.4222 13.3187 50.6042 13.1558 49.778 13.1558C48.9518 13.1558 48.1338 13.3187 47.3707 13.6352C46.6075 13.9516 45.9142 14.4154 45.3305 15L10.8305 49.5C10.2459 50.0837 9.78209 50.777 9.46565 51.5402C9.14921 52.3033 8.98633 53.1213 8.98633 53.9475C8.98633 54.7737 9.14921 55.5917 9.46565 56.3548C9.78209 57.118 10.2459 57.8113 10.8305 58.395L25.5005 73.05" stroke="#306EBA" stroke-width="4" stroke-linecap="round" stroke-linejoin="round"/>
<path d="M80.7157 39H31.7257C28.2712 39 25.4707 41.8005 25.4707 45.255V76.245C25.4707 79.6995 28.2712 82.5 31.7257 82.5H80.7157C84.1702 82.5 86.9707 79.6995 86.9707 76.245V45.255C86.9707 41.8005 84.1702 39 80.7157 39Z" stroke="#306EBA" stroke-width="4" stroke-linecap="round" stroke-linejoin="round"/>
<path d="M25.4707 51H86.9707" stroke="#306EBA" stroke-width="2" stroke-linecap="round" stroke-linejoin="round"/>
<path d="M25.4707 57H86.9707" stroke="#306EBA" stroke-width="2" stroke-linecap="round" stroke-linejoin="round"/>
<path d="M34.4707 66H46.4707" stroke="#306EBA" stroke-width="2" stroke-linecap="round" stroke-linejoin="round"/>
<path d="M34.4707 72H41.9707" stroke="#306EBA" stroke-width="2" stroke-linecap="round" stroke-linejoin="round"/>
<path d="M52.4707 66H59.9707" stroke="#306EBA" stroke-width="2" stroke-linecap="round" stroke-linejoin="round"/>
</svg>
