<svg width="96" height="96" viewBox="0 0 96 96" fill="none" xmlns="http://www.w3.org/2000/svg">
<g clip-path="url(#clip0_271_148)">
<path d="M69 40.9167C69 42.2458 67.95 43.3333 66.6667 43.3333H59.62C59.0133 52.7583 51.4067 60.25 42.1667 60.25H35.8667L56.47 77.7225C57.4733 78.5683 57.6133 80.0908 56.7967 81.13C56.33 81.71 55.6533 82.0242 54.9767 82.0242C54.4633 82.0242 53.9267 81.855 53.5067 81.4683L27.8633 59.6942C27.0933 59.0417 26.8133 57.9783 27.14 57.0117C27.4667 56.045 28.3533 55.4167 29.3333 55.4167H42.1667C48.84 55.4167 54.3467 50.1 54.9533 43.3333H29.3333C28.05 43.3333 27 42.2458 27 40.9167C27 39.5875 28.05 38.5 29.3333 38.5H54.51C52.9933 32.9175 48.0233 28.8333 42.1667 28.8333H29.3333C28.05 28.8333 27 27.7458 27 26.4167C27 25.0875 28.05 24 29.3333 24H66.6667C67.95 24 69 25.0875 69 26.4167C69 27.7458 67.95 28.8333 66.6667 28.8333H54.0433C56.68 31.3708 58.57 34.73 59.2933 38.5H66.6433C67.9267 38.5 68.9767 39.5875 68.9767 40.9167H69Z" fill="#306EBA"/>
</g>
<circle cx="48" cy="48" r="45.5" stroke="#306EBA" stroke-width="5"/>
<line x1="16.6843" y1="15.2708" x2="81.6843" y2="76.2708" stroke="#306EBA" stroke-width="2"/>
<defs>
<clipPath id="clip0_271_148">
<rect width="56" height="58" fill="white" transform="translate(20 24)"/>
</clipPath>
</defs>
</svg>
