<svg width="96" height="96" viewBox="0 0 96 96" fill="#306EBA" xmlns="http://www.w3.org/2000/svg">
<path d="M92.2395 62.853L89.8035 58.2435C89.919 57.846 90 57.4335 90 57C90 55.8435 89.5485 54.798 88.83 54C89.55 53.202 90 52.1565 90 51C90 49.8435 89.5485 48.798 88.83 48C89.55 47.202 90 46.1565 90 45C90 44.4075 89.8785 43.845 89.67 43.326C91.5825 42.807 93 41.0745 93 39C93 36.519 90.981 34.5 88.5 34.5H88.0845L92.4075 26.937C92.7945 26.259 93 25.4865 93 24.7035V24C93 21.519 90.981 19.5 88.5 19.5C86.241 19.5 85.02 20.586 84.1275 21.378C83.367 22.0545 82.8645 22.5 81.7455 22.5C80.628 22.5 80.1255 22.0545 79.365 21.378C78.4725 20.586 77.2515 19.5 74.9925 19.5C72.735 19.5 71.514 20.586 70.6215 21.378C69.861 22.0545 69.36 22.5 68.2425 22.5C67.128 22.5 66.627 22.0545 65.8695 21.3795C64.977 20.586 63.7575 19.5 61.5 19.5C59.019 19.5 57 21.519 57 24V24.7035C57 25.4865 57.2055 26.259 57.594 26.9355L59.3445 30H57.354C55.7085 30 54.066 30.285 52.5 30.7935V9C52.5 4.8645 49.1355 1.5 45 1.5H9C4.8645 1.5 1.5 4.8645 1.5 9V87C1.5 91.1355 4.8645 94.5 9 94.5H45C49.1355 94.5 52.5 91.1355 52.5 87V58.2165C52.7565 58.3455 53.019 58.4595 53.2665 58.608L54.69 59.463C55.938 60.2115 57.2955 60.7395 58.698 61.077L57.7605 62.8515C56.2815 65.6505 55.5 68.8005 55.5 72C55.5 82.752 64.248 91.5 75 91.5C85.752 91.5 94.5 82.752 94.5 71.964C94.5 68.8005 93.7185 65.6505 92.2395 62.853ZM60 24C60 23.1735 60.672 22.5 61.5 22.5C62.6145 22.5 63.117 22.9455 63.8745 23.6205C64.767 24.414 65.9865 25.5 68.2425 25.5C70.5 25.5 71.721 24.414 72.6135 23.622C73.374 22.9455 73.875 22.5 74.9925 22.5C76.11 22.5 76.6125 22.9455 77.373 23.622C78.2655 24.414 79.4865 25.5 81.7455 25.5C84.0045 25.5 85.227 24.414 86.1195 23.622C86.88 22.9455 87.3825 22.5 88.5 22.5C89.328 22.5 90 23.1735 90 24V24.7035C90 24.9645 89.931 25.221 89.802 25.4475L84.63 34.5H65.37L60.198 25.446C60.069 25.221 60 24.9645 60 24.7035V24ZM9 4.5H45C47.481 4.5 49.5 6.519 49.5 9V13.5H4.5V9C4.5 6.519 6.519 4.5 9 4.5ZM45 91.5H9C6.519 91.5 4.5 89.481 4.5 87V82.5H49.5V87C49.5 89.481 47.481 91.5 45 91.5ZM49.5 79.5H4.5V16.5H49.5V32.0145C48.537 32.412 47.5305 32.694 46.5 32.847V19.5H7.5V76.5H46.5V57H47.4585C48.147 57 48.828 57.0855 49.5 57.21V79.5ZM22.5 30V60H40.5V57H43.5V73.5H10.5V22.5H43.5V33H40.5V30H22.5ZM31.5 39V57H25.5V33H31.5V36H34.5V33H37.5V57H34.5V39H31.5ZM54.81 56.0355C52.59 54.7035 50.046 54 47.4585 54H40.5V36H44.646C47.0715 36 49.5015 35.427 51.672 34.3425C53.427 33.465 55.392 33 57.3555 33H61.059L63.63 37.5H88.5C89.328 37.5 90 38.1735 90 39C90 39.8265 89.328 40.5 88.5 40.5H85.5H76.5H67.5V43.5H76.5H85.5C86.328 43.5 87 44.1735 87 45C87 45.8265 86.328 46.5 85.5 46.5H76.5H67.5V49.5H76.5H85.5C86.328 49.5 87 50.1735 87 51C87 51.8265 86.328 52.5 85.5 52.5H67.5V55.5H85.5C86.328 55.5 87 56.1735 87 57C87 57.8265 86.328 58.5 85.5 58.5H62.0415C59.997 58.5 57.987 57.9435 56.2335 56.892L54.81 56.0355ZM75 88.5C65.9025 88.5 58.5 81.0975 58.5 71.964C58.5 69.288 59.16 66.621 60.411 64.2555L61.872 61.4895C61.929 61.4895 61.9845 61.5015 62.04 61.5015H85.5C86.34 61.5015 87.117 61.2555 87.7905 60.8535L89.589 64.2555C90.84 66.621 91.5 69.2865 91.5 72C91.5 81.0975 84.0975 88.5 75 88.5Z" fill="#306EBA"/>
<path d="M75 70.5C75.828 70.5 76.5 71.1735 76.5 72H79.5C79.5 70.047 78.2415 68.397 76.5 67.776V64.5H73.5V67.776C71.7585 68.397 70.5 70.047 70.5 72C70.5 74.481 72.519 76.5 75 76.5C75.828 76.5 76.5 77.1735 76.5 78C76.5 78.8265 75.828 79.5 75 79.5C74.172 79.5 73.5 78.8265 73.5 78H70.5C70.5 79.953 71.7585 81.603 73.5 82.224V85.5H76.5V82.224C78.2415 81.603 79.5 79.953 79.5 78C79.5 75.519 77.481 73.5 75 73.5C74.172 73.5 73.5 72.8265 73.5 72C73.5 71.1735 74.172 70.5 75 70.5Z" fill="#306EBA"/>
<path d="M33 7.5H21V10.5H33V7.5Z" fill="#306EBA"/>
<path d="M39 7.5H36V10.5H39V7.5Z" fill="#306EBA"/>
<path d="M18 7.5H15V10.5H18V7.5Z" fill="#306EBA"/>
<path d="M31.5 85.5H22.5V88.5H31.5V85.5Z" fill="#306EBA"/>
</svg>
