<svg width="40" height="40" viewBox="0 0 40 40" fill="none" xmlns="http://www.w3.org/2000/svg">
<g clip-path="url(#clip0_360_141)">
<path d="M40 7.50001C40 4.28335 37.3833 1.66668 34.1667 1.66668C30.95 1.66668 28.3333 4.28335 28.3333 7.50001C28.3333 10.4333 30.51 12.8683 33.3333 13.2733V25.8333C33.3333 29.05 30.7167 31.6667 27.5 31.6667H19.3383C19.46 31.3533 19.6467 31.06 19.8983 30.8067L24.1333 26.5717C24.4583 26.2467 24.4583 25.7183 24.1333 25.3933C23.8083 25.0683 23.28 25.0683 22.955 25.3933L18.72 29.6283C17.9533 30.395 17.5 31.6667 17.5 32.5C17.5 33.3333 17.9033 34.705 18.72 35.5217L22.955 39.7567C23.1183 39.92 23.3317 40 23.545 40C23.7583 40 23.9717 39.9183 24.135 39.7567C24.46 39.4317 24.46 38.9033 24.135 38.5783L19.9 34.3434C19.6067 34.05 19.4033 33.7033 19.2867 33.3333H27.5017C31.6367 33.3333 35.0017 29.9683 35.0017 25.8333V13.2733C37.825 12.8683 40 10.4333 40 7.50001ZM34.1667 11.6667C31.87 11.6667 30 9.79668 30 7.50001C30 5.20335 31.87 3.33335 34.1667 3.33335C36.4633 3.33335 38.3333 5.20335 38.3333 7.50001C38.3333 9.79668 36.4633 11.6667 34.1667 11.6667ZM22.6383 7.50001C22.6383 6.38668 22.205 5.34001 21.4183 4.55335L17.1833 0.320013C16.8567 -0.00498657 16.33 -0.00498657 16.005 0.320013C15.68 0.645013 15.68 1.17335 16.005 1.49835L20.24 5.73335C20.5083 6.00168 20.7083 6.32001 20.83 6.66835H12.5C8.365 6.66835 5 10.0333 5 14.1683V26.7283C2.17667 27.1333 0 29.5683 0 32.5017C0 35.7183 2.61667 38.335 5.83333 38.335C9.05 38.335 11.6667 35.7183 11.6667 32.5017C11.6667 29.5683 9.49 27.1333 6.66667 26.7283V14.1683C6.66667 10.9517 9.28333 8.33501 12.5 8.33501H20.8283C20.705 8.68168 20.5067 9.00168 20.2383 9.27001L16.0033 13.505C15.6783 13.83 15.6783 14.3583 16.0033 14.6833C16.1667 14.8467 16.38 14.9267 16.5933 14.9267C16.8067 14.9267 17.02 14.845 17.1833 14.6833L21.4183 10.4483C22.205 9.66168 22.6383 8.61335 22.6383 7.50001ZM10 32.5C10 34.7967 8.13 36.6667 5.83333 36.6667C3.53667 36.6667 1.66667 34.7967 1.66667 32.5C1.66667 30.2033 3.53667 28.3333 5.83333 28.3333C8.13 28.3333 10 30.2033 10 32.5Z" fill="#091F5D"/>
</g>
<defs>
<clipPath id="clip0_360_141">
<rect width="40" height="40" fill="white"/>
</clipPath>
</defs>
</svg>
