<svg width="40" height="40" viewBox="0 0 40 40" fill="none" xmlns="http://www.w3.org/2000/svg">
<g clip-path="url(#clip0_360_148)">
<path d="M18.3333 39.1667C18.3333 39.6267 17.96 40 17.5 40H7.5C3.365 40 0 36.635 0 32.5V7.5C0 3.365 3.365 0 7.5 0H22.5C26.635 0 30 3.365 30 7.5V14.1667C30 14.6267 29.6267 15 29.1667 15C28.7067 15 28.3333 14.6267 28.3333 14.1667V7.5C28.3333 4.28333 25.7167 1.66667 22.5 1.66667H7.5C4.28333 1.66667 1.66667 4.28333 1.66667 7.5V32.5C1.66667 35.7167 4.28333 38.3333 7.5 38.3333H17.5C17.96 38.3333 18.3333 38.7067 18.3333 39.1667ZM23.3333 9.16667C23.3333 8.70667 22.96 8.33333 22.5 8.33333H7.5C7.04 8.33333 6.66667 8.70667 6.66667 9.16667C6.66667 9.62667 7.04 10 7.5 10H22.5C22.96 10 23.3333 9.62667 23.3333 9.16667ZM20 17.5C20 17.04 19.6267 16.6667 19.1667 16.6667H7.5C7.04 16.6667 6.66667 17.04 6.66667 17.5C6.66667 17.96 7.04 18.3333 7.5 18.3333H19.1667C19.6267 18.3333 20 17.96 20 17.5ZM7.5 25C7.04 25 6.66667 25.3733 6.66667 25.8333C6.66667 26.2933 7.04 26.6667 7.5 26.6667H14.1667C14.6267 26.6667 15 26.2933 15 25.8333C15 25.3733 14.6267 25 14.1667 25H7.5ZM40 29.1667C40 35.14 35.14 40 29.1667 40C23.1933 40 18.3333 35.14 18.3333 29.1667C18.3333 23.1933 23.1933 18.3333 29.1667 18.3333C35.14 18.3333 40 23.1933 40 29.1667ZM38.3333 29.1667C38.3333 24.1133 34.22 20 29.1667 20C24.1133 20 20 24.1133 20 29.1667C20 34.22 24.1133 38.3333 29.1667 38.3333C34.22 38.3333 38.3333 34.22 38.3333 29.1667ZM32.755 27.7L29.0583 31.2483C28.4983 31.8017 27.5817 31.8017 27.0183 31.2517L25.1333 29.405C24.8067 29.0867 24.2783 29.0883 23.955 29.4183C23.6333 29.7467 23.64 30.275 23.9683 30.5967L25.8533 32.4433C26.4567 33.0333 27.25 33.3283 28.04 33.3283C28.83 33.3283 29.6233 33.0317 30.2233 32.4417L33.9117 28.9017C34.2433 28.585 34.2533 28.055 33.935 27.7233C33.6183 27.3933 33.0883 27.3817 32.755 27.7Z" fill="#091F5D"/>
</g>
<defs>
<clipPath id="clip0_360_148">
<rect width="40" height="40" fill="white"/>
</clipPath>
</defs>
</svg>
