<svg width="40" height="40" viewBox="0 0 40 40" fill="none" xmlns="http://www.w3.org/2000/svg">
<g clip-path="url(#clip0_360_146)">
<path d="M35.8333 9.99998H7.5C5.59 9.99998 3.79833 9.05498 2.71333 7.50165C3.77 5.98998 5.52167 4.99998 7.5 4.99998H39.1667C39.6267 4.99998 40 4.62665 40 4.16665C40 3.70665 39.6267 3.33331 39.1667 3.33331H7.5C3.35833 3.33331 0 6.69165 0 10.8333V29.1666C0 33.3083 3.35833 36.6666 7.5 36.6666H35.8333C38.135 36.6666 40 34.8016 40 32.5V14.1666C40 11.865 38.135 9.99998 35.8333 9.99998ZM38.3333 32.5C38.3333 33.8783 37.2117 35 35.8333 35H7.5C4.28333 35 1.66667 32.3833 1.66667 29.1666V10.8333C1.66667 10.2533 1.75167 9.69331 1.91 9.16498C3.32 10.735 5.35 11.6666 7.5 11.6666H35.8333C37.2117 11.6666 38.3333 12.7883 38.3333 14.1666V32.5ZM35 23.3333C35 24.2533 34.2533 25 33.3333 25C32.4133 25 31.6667 24.2533 31.6667 23.3333C31.6667 22.4133 32.4133 21.6666 33.3333 21.6666C34.2533 21.6666 35 22.4133 35 23.3333Z" fill="#091F5D"/>
</g>
<defs>
<clipPath id="clip0_360_146">
<rect width="40" height="40" fill="white"/>
</clipPath>
</defs>
</svg>
