<svg width="96" height="96" viewBox="0 0 96 96" fill="none" xmlns="http://www.w3.org/2000/svg">
<path d="M81 15V9C81 7.4087 80.3679 5.88258 79.2426 4.75736C78.1174 3.63214 76.5913 3 75 3H21C19.4087 3 17.8826 3.63214 16.7574 4.75736C15.6321 5.88258 15 7.4087 15 9V87C15 88.5913 15.6321 90.1174 16.7574 91.2426C17.8826 92.3679 19.4087 93 21 93H75C76.5913 93 78.1174 92.3679 79.2426 91.2426C80.3679 90.1174 81 88.5913 81 87V57" stroke="#306EBA" stroke-width="3.5" stroke-linecap="round" stroke-linejoin="round"/>
<path d="M81 15V9C81 7.4087 80.3679 5.88258 79.2426 4.75736C78.1174 3.63214 76.5913 3 75 3H21C19.4087 3 17.8826 3.63214 16.7574 4.75736C15.6321 5.88258 15 7.4087 15 9V87C15 88.5913 15.6321 90.1174 16.7574 91.2426C17.8826 92.3679 19.4087 93 21 93H75C76.5913 93 78.1174 92.3679 79.2426 91.2426C80.3679 90.1174 81 88.5913 81 87V57" stroke="#306EBA" stroke-width="3.5" stroke-linecap="round" stroke-linejoin="round"/>
<path d="M81 15V9C81 7.4087 80.3679 5.88258 79.2426 4.75736C78.1174 3.63214 76.5913 3 75 3H21C19.4087 3 17.8826 3.63214 16.7574 4.75736C15.6321 5.88258 15 7.4087 15 9V87C15 88.5913 15.6321 90.1174 16.7574 91.2426C17.8826 92.3679 19.4087 93 21 93H75C76.5913 93 78.1174 92.3679 79.2426 91.2426C80.3679 90.1174 81 88.5913 81 87V57" stroke="#306EBA" stroke-width="3.5" stroke-linecap="round" stroke-linejoin="round"/>
<path d="M42 81H54" stroke="#306EBA" stroke-width="3.5" stroke-linecap="round" stroke-linejoin="round"/>
<path d="M68.25 57.75L57 60L59.25 48.75L84 24L93 33L68.25 57.75Z" stroke="#306EBA" stroke-width="3.5" stroke-linecap="round" stroke-linejoin="round"/>
<path d="M48 60H27" stroke="#306EBA" stroke-width="3.5" stroke-linecap="round" stroke-linejoin="round"/>
<path d="M27 48H51" stroke="#306EBA" stroke-width="3.5" stroke-linecap="round" stroke-linejoin="round"/>
<path d="M27 36H57" stroke="#306EBA" stroke-width="3.5" stroke-linecap="round" stroke-linejoin="round"/>
</svg>
